<?xml version="1.0" encoding="UTF-8" standalone="no"?>
<svg
   xmlns:dc="http://purl.org/dc/elements/1.1/"
   xmlns:cc="http://creativecommons.org/ns#"
   xmlns:rdf="http://www.w3.org/1999/02/22-rdf-syntax-ns#"
   xmlns:svg="http://www.w3.org/2000/svg"
   xmlns="http://www.w3.org/2000/svg"
   xmlns:sodipodi="http://sodipodi.sourceforge.net/DTD/sodipodi-0.dtd"
   xmlns:inkscape="http://www.inkscape.org/namespaces/inkscape"
   inkscape:version="1.0 (4035a4fb49, 2020-05-01)"
   sodipodi:docname="linkedin-in-brands.svg"
   id="svg4"
   version="1.1"
   viewBox="0 0 448 512"
   role="img"
   class="svg-inline--fa fa-linkedin-in fa-w-14"
   data-icon="linkedin-in"
   data-prefix="fab"
   focusable="false"
   aria-hidden="true">
  <metadata
     id="metadata10">
    <rdf:RDF>
      <cc:Work
         rdf:about="">
        <dc:format>image/svg+xml</dc:format>
        <dc:type
           rdf:resource="http://purl.org/dc/dcmitype/StillImage" />
      </cc:Work>
    </rdf:RDF>
  </metadata>
  <defs
     id="defs8" />
  <sodipodi:namedview
     inkscape:current-layer="svg4"
     inkscape:window-maximized="1"
     inkscape:window-y="0"
     inkscape:window-x="0"
     inkscape:cy="256"
     inkscape:cx="224"
     inkscape:zoom="1.3964844"
     showgrid="false"
     id="namedview6"
     inkscape:window-height="1011"
     inkscape:window-width="1920"
     inkscape:pageshadow="2"
     inkscape:pageopacity="0"
     guidetolerance="10"
     gridtolerance="10"
     objecttolerance="10"
     borderopacity="1"
     bordercolor="#666666"
     pagecolor="#ffffff" />
  <path
     style="fill:#8ec942;fill-opacity:1"
     id="path2"
     d="M 100.28,479.995 H 7.4 v -299.1 h 92.88 z M 53.79,140.095 C 24.09,140.095 0,115.495 0,85.795 a 53.79,53.79 0 0 1 107.58,0 c 0,29.7 -24.1,54.3 -53.79,54.3 z m 394.11,339.9 h -92.68 v -145.6 c 0,-34.7 -0.7,-79.2 -48.29,-79.2 -48.29,0 -55.69,37.7 -55.69,76.7 v 148.1 h -92.78 v -299.1 h 89.08 v 40.8 h 1.3 c 12.4,-23.5 42.69,-48.3 87.88,-48.3 94,0 111.28,61.9 111.28,142.3 v 164.3 z"
     fill="currentColor" />
</svg>
