<?xml version="1.0" encoding="UTF-8" standalone="no"?>
<svg
   xmlns:dc="http://purl.org/dc/elements/1.1/"
   xmlns:cc="http://creativecommons.org/ns#"
   xmlns:rdf="http://www.w3.org/1999/02/22-rdf-syntax-ns#"
   xmlns:svg="http://www.w3.org/2000/svg"
   xmlns="http://www.w3.org/2000/svg"
   xmlns:sodipodi="http://sodipodi.sourceforge.net/DTD/sodipodi-0.dtd"
   xmlns:inkscape="http://www.inkscape.org/namespaces/inkscape"
   version="1.1"
   width="20"
   height="18"
   viewBox="0 0 20 18"
   id="svg4"
   sodipodi:docname="lnr-bubble.svg"
   inkscape:version="1.0 (4035a4fb49, 2020-05-01)">
  <metadata
     id="metadata10">
    <rdf:RDF>
      <cc:Work
         rdf:about="">
        <dc:format>image/svg+xml</dc:format>
        <dc:type
           rdf:resource="http://purl.org/dc/dcmitype/StillImage" />
        <dc:title />
      </cc:Work>
    </rdf:RDF>
  </metadata>
  <defs
     id="defs8" />
  <sodipodi:namedview
     inkscape:document-rotation="0"
     pagecolor="#ffffff"
     bordercolor="#666666"
     borderopacity="1"
     objecttolerance="10"
     gridtolerance="10"
     guidetolerance="10"
     inkscape:pageopacity="0"
     inkscape:pageshadow="2"
     inkscape:window-width="1920"
     inkscape:window-height="1011"
     id="namedview6"
     showgrid="false"
     inkscape:zoom="35.75"
     inkscape:cx="10"
     inkscape:cy="10"
     inkscape:window-x="0"
     inkscape:window-y="0"
     inkscape:window-maximized="1"
     inkscape:current-layer="svg4" />
  <path
     fill="#000000"
     d="m 0.52632018,17.998941 c -0.23683991,0 -0.44420641,-0.158805 -0.50736372,-0.388542 C -0.04420085,17.380661 0.05264036,17.13716 0.25579637,17.01541 2.0357799,15.941889 2.7736678,14.380308 3.0357706,13.649806 1.1010517,12.160216 9.2686417e-6,10.09893 9.2686417e-6,7.941301 9.2686417e-6,6.8518998 0.2715857,5.7963769 0.80842283,4.8033173 1.319997,3.8568404 2.0505166,3.0088225 2.9778764,2.282555 4.8589116,0.81096342 7.3525727,0 9.9999166,0 12.64726,0 15.140922,0.81096342 17.021957,2.282555 c 0.92736,0.7252088 1.657879,1.5732267 2.169453,2.5207623 0.536837,0.9920009 0.808414,2.0475238 0.808414,3.1379837 0,1.09046 -0.271577,2.144924 -0.808414,3.137984 -0.511574,0.946477 -1.242093,1.794495 -2.169453,2.520762 -1.881035,1.471592 -4.374697,2.282555 -7.0220404,2.282555 -1.0873584,0 -2.1547169,-0.136572 -3.1747074,-0.407599 C 6.3736344,15.777791 5.5294317,16.314551 4.52102,16.819551 2.9547187,17.602988 1.6115733,18 0.5273728,18 Z M 9.9999166,1.0597577 c -4.9336385,0 -8.9472855,3.0871662 -8.9472855,6.8815433 0,1.9215387 1.0578849,3.771086 2.9010257,5.073286 0.181051,0.128102 0.2631555,0.355722 0.2063139,0.570638 -0.1231567,0.461593 -0.5421002,1.728856 -1.6631425,2.951653 1.3705136,-0.482767 2.8462894,-1.320198 3.935753,-2.073991 0.1294725,-0.08999 0.2915763,-0.116457 0.4431538,-0.07305 0.9978855,0.286908 2.0494547,0.433008 3.1241816,0.433008 4.9336384,0 8.9472854,-3.087166 8.9472854,-6.881543 0,-3.7943771 -4.013647,-6.8815433 -8.9472854,-6.8815443 z"
     id="path2"
     style="stroke-width:1.05565;fill:#838383;fill-opacity:1" />
</svg>
