<?xml version="1.0" encoding="UTF-8" standalone="no"?>
<svg
   xmlns:dc="http://purl.org/dc/elements/1.1/"
   xmlns:cc="http://creativecommons.org/ns#"
   xmlns:rdf="http://www.w3.org/1999/02/22-rdf-syntax-ns#"
   xmlns:svg="http://www.w3.org/2000/svg"
   xmlns="http://www.w3.org/2000/svg"
   xmlns:sodipodi="http://sodipodi.sourceforge.net/DTD/sodipodi-0.dtd"
   xmlns:inkscape="http://www.inkscape.org/namespaces/inkscape"
   aria-hidden="true"
   focusable="false"
   data-prefix="fas"
   data-icon="quote-left"
   class="svg-inline--fa fa-quote-left fa-w-16"
   role="img"
   viewBox="0 0 512 448"
   version="1.1"
   id="svg4"
   sodipodi:docname="quote-left-solid-green.svg"
   width="512"
   height="448"
   inkscape:version="1.0 (4035a4fb49, 2020-05-01)">
  <metadata
     id="metadata10">
    <rdf:RDF>
      <cc:Work
         rdf:about="">
        <dc:format>image/svg+xml</dc:format>
        <dc:type
           rdf:resource="http://purl.org/dc/dcmitype/StillImage" />
        <dc:title />
      </cc:Work>
    </rdf:RDF>
  </metadata>
  <defs
     id="defs8" />
  <sodipodi:namedview
     inkscape:document-rotation="0"
     pagecolor="#ffffff"
     bordercolor="#666666"
     borderopacity="1"
     objecttolerance="10"
     gridtolerance="10"
     guidetolerance="10"
     inkscape:pageopacity="0"
     inkscape:pageshadow="2"
     inkscape:window-width="1920"
     inkscape:window-height="1011"
     id="namedview6"
     showgrid="false"
     inkscape:zoom="1.3964844"
     inkscape:cx="256"
     inkscape:cy="256"
     inkscape:window-x="0"
     inkscape:window-y="0"
     inkscape:window-maximized="1"
     inkscape:current-layer="svg4" />
  <path
     fill="currentColor"
     d="m 464,224 h -80 v -64 c 0,-35.3 28.7,-64 64,-64 h 8 c 13.3,0 24,-10.7 24,-24 V 24 C 480,10.7 469.3,0 456,0 h -8 C 359.6,0 288,71.6 288,160 v 240 c 0,26.5 21.5,48 48,48 h 128 c 26.5,0 48,-21.5 48,-48 V 272 c 0,-26.5 -21.5,-48 -48,-48 z m -288,0 H 96 v -64 c 0,-35.3 28.7,-64 64,-64 h 8 c 13.3,0 24,-10.7 24,-24 V 24 C 192,10.7 181.3,0 168,0 h -8 C 71.6,0 0,71.6 0,160 v 240 c 0,26.5 21.5,48 48,48 h 128 c 26.5,0 48,-21.5 48,-48 V 272 c 0,-26.5 -21.5,-48 -48,-48 z"
     id="path2"
     style="fill:#0f9447;fill-opacity:1" />
</svg>
